<?xml version="1.0" encoding="utf-8"?>
<!-- Generator: Adobe Illustrator 25.1.0, SVG Export Plug-In . SVG Version: 6.00 Build 0)  -->
<svg version="1.1" id="Layer_1" xmlns="http://www.w3.org/2000/svg" xmlns:xlink="http://www.w3.org/1999/xlink" x="0px" y="0px"
	 viewBox="0 0 720 720" style="enable-background:new 0 0 720 720;" xml:space="preserve">
<style type="text/css">
	.st0{fill:url(#SVGID_1_);}
	.st1{fill:url(#SVGID_2_);}
</style>
<g>
	<linearGradient id="SVGID_1_" gradientUnits="userSpaceOnUse" x1="2.1956" y1="360.1833" x2="702.5936" y2="360.1833">
		<stop  offset="2.484434e-03" style="stop-color:#3316C4"/>
		<stop  offset="1" style="stop-color:#A54AFF"/>
	</linearGradient>
	<path class="st0" d="M99,682.5L99,682.5c-27.7,0-50.2-22.5-50.2-50.2V276.4c0-31.4,5.4-92.1,41.2-146.4
		c27.7-42,82.3-92.1,185.1-92.1c144.2,0,222,111.8,222,217v226.5c0,27.7-22.5,50.2-50.2,50.2h0c-27.7,0-50.2-22.5-50.2-50.2V254.8
		c0-40.3-25.4-116.6-121.6-116.6c-113.6,0-125.8,96.6-125.8,138.1v355.9C149.2,660,126.8,682.5,99,682.5z"/>
	<linearGradient id="SVGID_2_" gradientUnits="userSpaceOnUse" x1="2.1956" y1="360.1833" x2="702.5936" y2="360.1833">
		<stop  offset="2.484434e-03" style="stop-color:#3316C4"/>
		<stop  offset="1" style="stop-color:#A54AFF"/>
	</linearGradient>
	<path class="st1" d="M444.7,682.5c-144.2,0-222-111.8-222-217V239c0-27.7,22.5-50.2,50.2-50.2h0c27.7,0,50.2,22.5,50.2,50.2v226.5
		c0,40.3,25.4,116.6,121.6,116.6c113.6,0,125.8-96.6,125.8-138.1V88.1c0-27.7,22.5-50.2,50.2-50.2h0c27.7,0,50.2,22.5,50.2,50.2
		v355.9c0,31.4-5.4,92.1-41.2,146.4C602.1,632.4,547.5,682.5,444.7,682.5z"/>
</g>
</svg>
