<?xml version="1.0" encoding="utf-8"?>
<!-- Generator: Adobe Illustrator 25.1.0, SVG Export Plug-In . SVG Version: 6.00 Build 0)  -->
<svg version="1.1" id="Layer_1" xmlns="http://www.w3.org/2000/svg" xmlns:xlink="http://www.w3.org/1999/xlink" x="0px" y="0px"
	 viewBox="0 0 720 720" style="enable-background:new 0 0 720 720;" xml:space="preserve">
<style type="text/css">
	.st0{fill:url(#SVGID_1_);}
	.st1{fill:url(#SVGID_2_);}
</style>
<linearGradient id="SVGID_1_" gradientUnits="userSpaceOnUse" x1="-51.3948" y1="360.0984" x2="697.8445" y2="360.0984">
	<stop  offset="2.482095e-03" style="stop-color:#023ED6"/>
	<stop  offset="1" style="stop-color:#01C5F9"/>
</linearGradient>
<path class="st0" d="M98.9,682.5L98.9,682.5c-27.7,0-50.2-22.5-50.2-50.2v-356c0-31.4,5.4-92.1,41.2-146.5
	c27.7-42,82.3-92.2,185.1-92.2c144.2,0,222.1,111.8,222.1,217v226.6c0,27.7-22.5,50.2-50.2,50.2h0c-27.7,0-50.2-22.5-50.2-50.2
	V254.7c0-40.3-25.4-116.6-121.6-116.6c-113.6,0-125.9,96.6-125.9,138.2v356C149.1,660,126.6,682.5,98.9,682.5z"/>
<linearGradient id="SVGID_2_" gradientUnits="userSpaceOnUse" x1="-51.3948" y1="360.0984" x2="697.8445" y2="360.0984">
	<stop  offset="2.482095e-03" style="stop-color:#023ED6"/>
	<stop  offset="1" style="stop-color:#01C5F9"/>
</linearGradient>
<path class="st1" d="M444.7,682.5c-144.2,0-222.1-111.8-222.1-217V238.9c0-27.7,22.5-50.2,50.2-50.2h0c27.7,0,50.2,22.5,50.2,50.2
	v226.6c0,40.3,25.4,116.6,121.6,116.6c113.6,0,125.9-96.6,125.9-138.2v-356c0-27.7,22.5-50.2,50.2-50.2h0
	c27.7,0,50.2,22.5,50.2,50.2v356c0,31.4-5.4,92.1-41.2,146.5C602.1,632.4,547.5,682.5,444.7,682.5z"/>
</svg>
