<?xml version="1.0" encoding="utf-8"?>
<!-- Generator: Adobe Illustrator 25.1.0, SVG Export Plug-In . SVG Version: 6.00 Build 0)  -->
<svg version="1.1" id="Layer_1" xmlns="http://www.w3.org/2000/svg" xmlns:xlink="http://www.w3.org/1999/xlink" x="0px" y="0px"
	 viewBox="0 0 720 720" style="enable-background:new 0 0 720 720;" xml:space="preserve">
<style type="text/css">
	.st0{fill:url(#SVGID_1_);}
	.st1{fill:url(#SVGID_2_);}
</style>
<g>
	<linearGradient id="SVGID_1_" gradientUnits="userSpaceOnUse" x1="727.5305" y1="477.7441" x2="303.3849" y2="250.0203">
		<stop  offset="2.484434e-03" style="stop-color:#3316C4"/>
		<stop  offset="1" style="stop-color:#A54AFF"/>
	</linearGradient>
	<path class="st0" d="M620.8,37.7L620.8,37.7c27.7,0,50.2,22.5,50.2,50.2v356c0,31.4-5.4,92.1-41.2,146.5
		c-27.7,42-82.3,92.2-185.1,92.2c-144.2,0-222.1-111.8-222.1-217V238.9c0-27.7,22.5-50.2,50.2-50.2h0c27.7,0,50.2,22.5,50.2,50.2
		v226.6c0,40.3,25.4,116.6,121.6,116.6c113.6,0,125.9-96.6,125.9-138.2v-356C570.6,60.2,593,37.7,620.8,37.7z"/>
	<linearGradient id="SVGID_2_" gradientUnits="userSpaceOnUse" x1="451.856" y1="14.2812" x2="84.0545" y2="702.9307">
		<stop  offset="2.482095e-03" style="stop-color:#023ED6"/>
		<stop  offset="1" style="stop-color:#01C5F9"/>
	</linearGradient>
	<path class="st1" d="M275,37.7c144.2,0,222.1,111.8,222.1,217v226.6c0,27.7-22.5,50.2-50.2,50.2h0c-27.7,0-50.2-22.5-50.2-50.2
		V254.7c0-40.3-25.4-116.6-121.6-116.6c-113.6,0-125.9,96.6-125.9,138.2v356c0,27.7-22.5,50.2-50.2,50.2h0
		c-27.7,0-50.2-22.5-50.2-50.2v-356c0-31.4,5.4-92.1,41.2-146.5C117.6,87.8,172.2,37.7,275,37.7z"/>
</g>
</svg>
